<svg width="227" height="86" viewBox="0 0 227 86" fill="none" xmlns="http://www.w3.org/2000/svg">
<path d="M84.5092 32.1818V54H79.8963V32.1818H84.5092ZM92.7576 44.5398V54H88.2193V37.6364H92.5446V40.5234H92.7363C93.0985 39.5717 93.7058 38.8189 94.5581 38.2649C95.4103 37.7038 96.4437 37.4233 97.6582 37.4233C98.7946 37.4233 99.7853 37.6719 100.631 38.169C101.476 38.6662 102.133 39.3764 102.601 40.2997C103.07 41.2159 103.305 42.3097 103.305 43.581V54H98.7662V44.3906C98.7733 43.3892 98.5176 42.608 97.9991 42.0469C97.4806 41.4787 96.7669 41.1946 95.8578 41.1946C95.247 41.1946 94.7072 41.326 94.2385 41.5888C93.7768 41.8516 93.4146 42.2351 93.1518 42.7393C92.8961 43.2365 92.7647 43.8366 92.7576 44.5398ZM120.496 42.3026L116.342 42.5582C116.271 42.2031 116.118 41.8835 115.884 41.5994C115.649 41.3082 115.34 41.0774 114.957 40.907C114.58 40.7294 114.129 40.6406 113.604 40.6406C112.901 40.6406 112.308 40.7898 111.825 41.0881C111.342 41.3793 111.1 41.7699 111.1 42.2599C111.1 42.6506 111.256 42.9808 111.569 43.2507C111.881 43.5206 112.418 43.7372 113.178 43.9006L116.139 44.4972C117.73 44.8239 118.916 45.3494 119.697 46.0739C120.479 46.7983 120.869 47.75 120.869 48.929C120.869 50.0014 120.553 50.9425 119.921 51.7521C119.296 52.5618 118.437 53.1939 117.343 53.6484C116.256 54.0959 115.003 54.3196 113.582 54.3196C111.416 54.3196 109.69 53.8686 108.405 52.9666C107.126 52.0575 106.377 50.8217 106.157 49.2592L110.621 49.0249C110.756 49.6854 111.082 50.1896 111.601 50.5376C112.119 50.8786 112.783 51.049 113.593 51.049C114.388 51.049 115.028 50.8963 115.511 50.5909C116.001 50.2784 116.249 49.8771 116.256 49.3871C116.249 48.9751 116.075 48.6378 115.734 48.375C115.393 48.1051 114.868 47.8991 114.158 47.7571L111.324 47.1925C109.726 46.8729 108.536 46.3189 107.755 45.5305C106.981 44.7422 106.594 43.7372 106.594 42.5156C106.594 41.4645 106.878 40.5589 107.446 39.799C108.021 39.0391 108.827 38.4531 109.864 38.0412C110.908 37.6293 112.13 37.4233 113.529 37.4233C115.596 37.4233 117.222 37.8601 118.408 38.7337C119.602 39.6072 120.298 40.7969 120.496 42.3026ZM132.431 37.6364V41.0455H122.577V37.6364H132.431ZM124.814 33.7159H129.352V48.9716C129.352 49.3906 129.416 49.7173 129.544 49.9517C129.672 50.179 129.849 50.3388 130.077 50.4311C130.311 50.5234 130.581 50.5696 130.886 50.5696C131.099 50.5696 131.312 50.5518 131.525 50.5163C131.738 50.4737 131.902 50.4418 132.015 50.4205L132.729 53.7976C132.502 53.8686 132.182 53.9503 131.77 54.0426C131.358 54.142 130.858 54.2024 130.268 54.2237C129.175 54.2663 128.216 54.1207 127.392 53.7869C126.575 53.4531 125.939 52.9347 125.485 52.2315C125.03 51.5284 124.807 50.6406 124.814 49.5682V33.7159ZM140.053 54.3089C139.009 54.3089 138.079 54.1278 137.262 53.7656C136.445 53.3963 135.799 52.853 135.323 52.1357C134.855 51.4112 134.62 50.5092 134.62 49.4297C134.62 48.5206 134.787 47.7571 135.121 47.1392C135.455 46.5213 135.909 46.0241 136.485 45.6477C137.06 45.2713 137.713 44.9872 138.445 44.7955C139.183 44.6037 139.958 44.4688 140.767 44.3906C141.719 44.2912 142.486 44.1989 143.068 44.1136C143.651 44.0213 144.073 43.8864 144.336 43.7088C144.599 43.5312 144.73 43.2685 144.73 42.9205V42.8565C144.73 42.1818 144.517 41.6598 144.091 41.2905C143.672 40.9212 143.075 40.7365 142.301 40.7365C141.485 40.7365 140.835 40.9176 140.352 41.2798C139.869 41.6349 139.549 42.0824 139.393 42.6222L135.195 42.2812C135.409 41.2869 135.828 40.4276 136.453 39.7031C137.078 38.9716 137.884 38.4105 138.871 38.0199C139.865 37.6222 141.016 37.4233 142.323 37.4233C143.232 37.4233 144.102 37.5298 144.933 37.7429C145.771 37.956 146.513 38.2862 147.159 38.7337C147.813 39.1811 148.328 39.7564 148.704 40.4595C149.08 41.1555 149.269 41.9901 149.269 42.9631V54H144.965V51.7308H144.837C144.574 52.2422 144.222 52.6932 143.782 53.0838C143.342 53.4673 142.813 53.7692 142.195 53.9893C141.577 54.2024 140.863 54.3089 140.053 54.3089ZM141.353 51.1768C142.021 51.1768 142.61 51.0455 143.122 50.7827C143.633 50.5128 144.034 50.1506 144.325 49.696C144.617 49.2415 144.762 48.7266 144.762 48.1513V46.4148C144.62 46.5071 144.425 46.5923 144.176 46.6705C143.935 46.7415 143.661 46.8089 143.356 46.8729C143.051 46.9297 142.745 46.983 142.44 47.0327C142.134 47.0753 141.857 47.1143 141.609 47.1499C141.076 47.228 140.611 47.3523 140.213 47.5227C139.816 47.6932 139.507 47.924 139.286 48.2152C139.066 48.4993 138.956 48.8544 138.956 49.2805C138.956 49.8984 139.18 50.3707 139.627 50.6974C140.082 51.017 140.657 51.1768 141.353 51.1768ZM160.162 60.4773C158.692 60.4773 157.431 60.2749 156.38 59.87C155.336 59.4723 154.505 58.929 153.887 58.2401C153.269 57.5511 152.868 56.777 152.683 55.9176L156.881 55.353C157.008 55.6797 157.211 55.9851 157.488 56.2692C157.765 56.5533 158.131 56.7805 158.585 56.951C159.047 57.1286 159.608 57.2173 160.268 57.2173C161.256 57.2173 162.069 56.9759 162.708 56.4929C163.354 56.017 163.677 55.218 163.677 54.0959V51.1023H163.486C163.287 51.5568 162.988 51.9865 162.591 52.3913C162.193 52.7962 161.682 53.1264 161.057 53.3821C160.432 53.6378 159.686 53.7656 158.819 53.7656C157.591 53.7656 156.472 53.4815 155.464 52.9134C154.462 52.3381 153.663 51.4609 153.067 50.282C152.477 49.0959 152.182 47.5973 152.182 45.7862C152.182 43.9325 152.484 42.3842 153.088 41.1413C153.692 39.8984 154.494 38.968 155.496 38.3501C156.504 37.7322 157.608 37.4233 158.809 37.4233C159.725 37.4233 160.492 37.5795 161.11 37.892C161.728 38.1974 162.225 38.581 162.601 39.0426C162.985 39.4972 163.28 39.9446 163.486 40.3849H163.656V37.6364H168.162V54.1598C168.162 55.5518 167.822 56.7166 167.14 57.6541C166.458 58.5916 165.513 59.2947 164.306 59.7635C163.106 60.2393 161.724 60.4773 160.162 60.4773ZM160.258 50.3565C160.989 50.3565 161.607 50.1754 162.111 49.8132C162.623 49.4439 163.013 48.9183 163.283 48.2365C163.56 47.5476 163.699 46.7237 163.699 45.7649C163.699 44.8061 163.564 43.9751 163.294 43.272C163.024 42.5618 162.633 42.0114 162.122 41.6207C161.611 41.2301 160.989 41.0348 160.258 41.0348C159.512 41.0348 158.883 41.2372 158.372 41.642C157.861 42.0398 157.474 42.5937 157.211 43.304C156.948 44.0142 156.817 44.8345 156.817 45.7649C156.817 46.7095 156.948 47.5263 157.211 48.2152C157.481 48.897 157.868 49.4261 158.372 49.8026C158.883 50.1719 159.512 50.3565 160.258 50.3565ZM171.774 54V37.6364H176.174V40.4915H176.344C176.643 39.4759 177.143 38.7088 177.846 38.1903C178.55 37.6648 179.359 37.402 180.275 37.402C180.503 37.402 180.748 37.4162 181.01 37.4446C181.273 37.473 181.504 37.5121 181.703 37.5618V41.5888C181.49 41.5249 181.195 41.468 180.819 41.4183C180.442 41.3686 180.098 41.3438 179.785 41.3438C179.118 41.3438 178.521 41.4893 177.996 41.7805C177.477 42.0646 177.065 42.4624 176.76 42.9737C176.461 43.4851 176.312 44.0746 176.312 44.7422V54H171.774ZM188.247 54.3089C187.203 54.3089 186.272 54.1278 185.456 53.7656C184.639 53.3963 183.993 52.853 183.517 52.1357C183.048 51.4112 182.814 50.5092 182.814 49.4297C182.814 48.5206 182.98 47.7571 183.314 47.1392C183.648 46.5213 184.103 46.0241 184.678 45.6477C185.253 45.2713 185.907 44.9872 186.638 44.7955C187.377 44.6037 188.151 44.4688 188.961 44.3906C189.912 44.2912 190.679 44.1989 191.262 44.1136C191.844 44.0213 192.267 43.8864 192.529 43.7088C192.792 43.5312 192.924 43.2685 192.924 42.9205V42.8565C192.924 42.1818 192.711 41.6598 192.284 41.2905C191.865 40.9212 191.269 40.7365 190.495 40.7365C189.678 40.7365 189.028 40.9176 188.545 41.2798C188.062 41.6349 187.743 42.0824 187.586 42.6222L183.389 42.2812C183.602 41.2869 184.021 40.4276 184.646 39.7031C185.271 38.9716 186.077 38.4105 187.064 38.0199C188.059 37.6222 189.209 37.4233 190.516 37.4233C191.425 37.4233 192.295 37.5298 193.126 37.7429C193.964 37.956 194.706 38.2862 195.353 38.7337C196.006 39.1811 196.521 39.7564 196.897 40.4595C197.274 41.1555 197.462 41.9901 197.462 42.9631V54H193.158V51.7308H193.03C192.767 52.2422 192.416 52.6932 191.975 53.0838C191.535 53.4673 191.006 53.7692 190.388 53.9893C189.77 54.2024 189.056 54.3089 188.247 54.3089ZM189.547 51.1768C190.214 51.1768 190.804 51.0455 191.315 50.7827C191.826 50.5128 192.228 50.1506 192.519 49.696C192.81 49.2415 192.956 48.7266 192.956 48.1513V46.4148C192.814 46.5071 192.618 46.5923 192.37 46.6705C192.128 46.7415 191.855 46.8089 191.549 46.8729C191.244 46.9297 190.939 46.983 190.633 47.0327C190.328 47.0753 190.051 47.1143 189.802 47.1499C189.27 47.228 188.804 47.3523 188.407 47.5227C188.009 47.6932 187.7 47.924 187.48 48.2152C187.26 48.4993 187.15 48.8544 187.15 49.2805C187.15 49.8984 187.373 50.3707 187.821 50.6974C188.275 51.017 188.85 51.1768 189.547 51.1768ZM200.983 54V37.6364H205.308V40.5234H205.5C205.841 39.5646 206.409 38.8082 207.205 38.2543C208 37.7003 208.952 37.4233 210.06 37.4233C211.182 37.4233 212.137 37.7038 212.925 38.2649C213.714 38.8189 214.239 39.5717 214.502 40.5234H214.673C215.006 39.5859 215.61 38.8366 216.484 38.2756C217.364 37.7074 218.405 37.4233 219.605 37.4233C221.132 37.4233 222.371 37.9098 223.323 38.8828C224.282 39.8487 224.761 41.2195 224.761 42.995V54H220.234V43.8899C220.234 42.9808 219.992 42.299 219.509 41.8445C219.026 41.3899 218.423 41.1626 217.698 41.1626C216.874 41.1626 216.232 41.4254 215.77 41.951C215.308 42.4695 215.077 43.1548 215.077 44.0071V54H210.678V43.794C210.678 42.9915 210.447 42.3523 209.985 41.8764C209.531 41.4006 208.93 41.1626 208.185 41.1626C207.68 41.1626 207.226 41.2905 206.821 41.5462C206.423 41.7947 206.107 42.1463 205.873 42.6009C205.638 43.0483 205.521 43.5739 205.521 44.1776V54H200.983Z" fill="#FFD700"/>
<path d="M14.625 5.375H63.375C68.7375 5.375 73.125 10.2125 73.125 16.125V69.875C73.125 75.7875 68.7375 80.625 63.375 80.625H14.625C9.2625 80.625 4.875 75.7875 4.875 69.875V16.125C4.875 10.2125 9.2625 5.375 14.625 5.375Z" fill="black"/>
<path d="M51.9186 26.0687C50.4561 26.0687 48.9937 27.4125 48.9937 29.2937C48.9937 31.175 50.2124 32.5187 51.9186 32.5187C53.6249 32.5187 54.8437 31.175 54.8437 29.2937C54.5999 27.4125 53.3811 26.0687 51.9186 26.0687Z" fill="#FFD700"/>
<path d="M38.9999 30.1C32.4187 30.1 27.0562 36.0125 27.0562 43.2687C27.0562 50.525 32.4187 56.4375 38.9999 56.4375C45.5812 56.4375 50.9437 50.525 50.9437 43.2687C51.1874 36.0125 45.8249 30.1 38.9999 30.1ZM38.9999 51.8687C34.8562 51.8687 31.1999 48.1062 31.1999 43.2687C31.1999 38.7 34.6124 34.6687 38.9999 34.6687C43.1437 34.6687 46.7999 38.4312 46.7999 43.2687C46.7999 48.1062 43.3874 51.8687 38.9999 51.8687Z" fill="#FFD700"/>
<path d="M48.75 16.125H29.25C21.2063 16.125 14.625 23.3812 14.625 32.25V53.75C14.625 62.6188 21.2063 69.875 29.25 69.875H48.75C56.7938 69.875 63.375 62.6188 63.375 53.75V32.25C63.375 23.3812 56.7938 16.125 48.75 16.125ZM58.7438 53.75C58.7438 59.9313 54.1125 64.7687 48.75 64.7687H29.25C23.6438 64.7687 19.2563 59.6625 19.2563 53.75V32.25C19.2563 26.0688 23.8875 21.2313 29.25 21.2313H48.75C54.3563 21.2313 58.7438 26.3375 58.7438 32.25V53.75Z" fill="#FFD700"/>
</svg>
